<svg width="24" height="24" viewBox="0 0 24 24" fill="none" xmlns="http://www.w3.org/2000/svg">
<path d="M12.0034 5.8467C8.5974 5.8467 5.85011 8.594 5.85011 12C5.85011 15.406 8.5974 18.1533 12.0034 18.1533C15.4094 18.1533 18.1567 15.406 18.1567 12C18.1567 8.594 15.4094 5.8467 12.0034 5.8467ZM12.0034 16.0004C9.80235 16.0004 8.00296 14.2064 8.00296 12C8.00296 9.7936 9.797 7.99955 12.0034 7.99955C14.2098 7.99955 16.0038 9.7936 16.0038 12C16.0038 14.2064 14.2045 16.0004 12.0034 16.0004V16.0004ZM19.8436 5.595C19.8436 6.39295 19.201 7.03024 18.4084 7.03024C17.6105 7.03024 16.9732 6.38759 16.9732 5.595C16.9732 4.80241 17.6158 4.15977 18.4084 4.15977C19.201 4.15977 19.8436 4.80241 19.8436 5.595ZM23.9191 7.05166C23.828 5.12909 23.3889 3.42609 21.9804 2.02298C20.5773 0.619882 18.8743 0.180743 16.9517 0.0843468C14.9703 -0.0281156 9.03118 -0.0281156 7.0497 0.0843468C5.13249 0.175388 3.42949 0.614526 2.02103 2.01763C0.612573 3.42073 0.17879 5.12373 0.0823936 7.0463C-0.0300687 9.02778 -0.0300687 14.9669 0.0823936 16.9483C0.173435 18.8709 0.612573 20.5739 2.02103 21.977C3.42949 23.3801 5.12713 23.8193 7.0497 23.9157C9.03118 24.0281 14.9703 24.0281 16.9517 23.9157C18.8743 23.8246 20.5773 23.3855 21.9804 21.977C23.3835 20.5739 23.8227 18.8709 23.9191 16.9483C24.0315 14.9669 24.0315 9.03314 23.9191 7.05166V7.05166ZM21.3592 19.0744C20.9415 20.1241 20.1328 20.9327 19.0778 21.3558C17.498 21.9824 13.7492 21.8378 12.0034 21.8378C10.2576 21.8378 6.50346 21.977 4.92899 21.3558C3.87934 20.9381 3.07068 20.1294 2.64761 19.0744C2.02103 17.4946 2.16562 13.7458 2.16562 12C2.16562 10.2542 2.02639 6.50006 2.64761 4.92558C3.06532 3.87593 3.87398 3.06728 4.92899 2.6442C6.50881 2.01763 10.2576 2.16222 12.0034 2.16222C13.7492 2.16222 17.5033 2.02298 19.0778 2.6442C20.1275 3.06192 20.9361 3.87058 21.3592 4.92558C21.9858 6.50541 21.8412 10.2542 21.8412 12C21.8412 13.7458 21.9858 17.4999 21.3592 19.0744Z" fill="#565656"/>
</svg>
