<svg width="17" height="17" viewBox="0 0 17 17" fill="none" xmlns="http://www.w3.org/2000/svg">
<path fill-rule="evenodd" clip-rule="evenodd" d="M13.1017 11.7635L16.8788 15.5458C17.0475 15.7334 17.0391 16.0207 16.8599 16.1982L16.1989 16.8601C16.1102 16.9497 15.9896 17 15.8637 17C15.7378 17 15.6171 16.9497 15.5285 16.8601L11.7514 13.0778C11.6469 12.9731 11.5521 12.8592 11.4681 12.7374L10.7599 11.7918C9.58814 12.7288 8.13301 13.239 6.63347 13.2386C3.54346 13.2493 0.858359 11.1148 0.167823 8.09871C-0.522714 5.08263 0.965611 1.98993 3.75166 0.651585C6.53772 -0.68676 9.87794 0.0864286 11.7948 2.5134C13.7117 4.94038 13.6937 8.37341 11.7514 10.7801L12.6957 11.4325C12.8431 11.527 12.9794 11.638 13.1017 11.7635ZM1.9126 6.61946C1.9126 9.23061 4.02641 11.3474 6.63393 11.3474C7.88611 11.3474 9.087 10.8493 9.97242 9.9626C10.8578 9.07594 11.3553 7.87338 11.3553 6.61946C11.3553 4.0083 9.24145 1.89154 6.63393 1.89154C4.02641 1.89154 1.9126 4.0083 1.9126 6.61946Z" fill="black"/>
</svg>
