<svg width="30" height="24" viewBox="0 0 30 24" fill="none" xmlns="http://www.w3.org/2000/svg">
<path d="M26.7371 5.98123C26.7559 6.24372 26.7559 6.50626 26.7559 6.76875C26.7559 14.775 20.6622 24 9.52462 24C6.09335 24 2.90587 23.0062 0.224609 21.2813C0.712127 21.3375 1.18083 21.3563 1.68711 21.3563C4.51831 21.3563 7.1246 20.4 9.20586 18.7688C6.54335 18.7125 4.3121 16.9688 3.54333 14.5687C3.91836 14.625 4.29334 14.6625 4.68713 14.6625C5.23086 14.6625 5.77465 14.5874 6.28087 14.4563C3.50588 13.8937 1.42456 11.4562 1.42456 8.51249V8.43752C2.23078 8.88752 3.16836 9.16877 4.16204 9.20622C2.53078 8.1187 1.46207 6.26247 1.46207 4.16246C1.46207 3.03748 1.76202 2.00623 2.28705 1.10622C5.26832 4.78122 9.74959 7.18118 14.7745 7.44372C14.6808 6.99372 14.6245 6.52502 14.6245 6.05626C14.6245 2.71872 17.3246 0 20.6808 0C22.4245 0 23.9995 0.731248 25.1058 1.9125C26.4745 1.65001 27.787 1.14374 28.9496 0.450003C28.4995 1.85628 27.5433 3.03754 26.2871 3.78748C27.5058 3.6563 28.6871 3.31872 29.7745 2.85002C28.9497 4.04997 27.9184 5.11868 26.7371 5.98123V5.98123Z" fill="#565656"/>
</svg>
