<svg width="200" height="35" viewBox="0 0 200 35" fill="none" xmlns="http://www.w3.org/2000/svg">
<path d="M47.515 31C47.095 31 46.745 30.86 46.465 30.58C46.2083 30.3 46.08 29.9617 46.08 29.565V7.9C46.08 7.50333 46.2083 7.17667 46.465 6.92C46.745 6.64 47.0833 6.5 47.48 6.5H59.765C60.1617 6.5 60.5 6.62833 60.78 6.885C61.06 7.14167 61.2 7.46833 61.2 7.865C61.2 8.23833 61.06 8.55333 60.78 8.81C60.5 9.06667 60.1617 9.195 59.765 9.195H48.74L48.95 8.915V17.49L48.775 17.105H58.19C58.5867 17.105 58.925 17.245 59.205 17.525C59.485 17.7817 59.625 18.1083 59.625 18.505C59.625 18.855 59.485 19.17 59.205 19.45C58.925 19.7067 58.5867 19.835 58.19 19.835H48.705L48.95 19.52V29.565C48.95 29.9617 48.81 30.3 48.53 30.58C48.25 30.86 47.9117 31 47.515 31ZM66.4724 31C66.0758 31 65.7374 30.86 65.4574 30.58C65.2008 30.3 65.0724 29.9617 65.0724 29.565V14.305C65.0724 13.9083 65.2008 13.5817 65.4574 13.325C65.7374 13.045 66.0758 12.905 66.4724 12.905C66.8924 12.905 67.2308 13.045 67.4874 13.325C67.7441 13.5817 67.8724 13.9083 67.8724 14.305V18.925L67.4524 18.19C67.5924 17.4667 67.8374 16.7667 68.1874 16.09C68.5608 15.39 69.0274 14.7717 69.5874 14.235C70.1474 13.675 70.7891 13.2433 71.5124 12.94C72.2358 12.6133 73.0291 12.45 73.8924 12.45C74.4058 12.45 74.8724 12.5783 75.2924 12.835C75.7358 13.0683 75.9574 13.4067 75.9574 13.85C75.9574 14.34 75.8291 14.7017 75.5724 14.935C75.3158 15.1683 75.0241 15.285 74.6974 15.285C74.3941 15.285 74.1024 15.2267 73.8224 15.11C73.5424 14.97 73.1924 14.9 72.7724 14.9C72.1891 14.9 71.6058 15.0633 71.0224 15.39C70.4624 15.6933 69.9374 16.1367 69.4474 16.72C68.9808 17.3033 68.5958 17.9683 68.2924 18.715C68.0124 19.4383 67.8724 20.22 67.8724 21.06V29.565C67.8724 29.9617 67.7324 30.3 67.4524 30.58C67.1958 30.86 66.8691 31 66.4724 31ZM86.6991 31.35C84.8325 31.35 83.1991 30.9533 81.7991 30.16C80.3991 29.3667 79.3025 28.2817 78.5091 26.905C77.7391 25.505 77.3541 23.895 77.3541 22.075C77.3541 20.045 77.7508 18.3183 78.5441 16.895C79.3608 15.4483 80.4108 14.3517 81.6941 13.605C83.0008 12.835 84.3775 12.45 85.8241 12.45C86.8975 12.45 87.9358 12.6483 88.9391 13.045C89.9425 13.4417 90.8291 14.025 91.5991 14.795C92.3691 15.5417 92.9875 16.4517 93.4541 17.525C93.9208 18.575 94.1658 19.7533 94.1891 21.06C94.1891 21.4333 94.0491 21.7483 93.7691 22.005C93.4891 22.2617 93.1625 22.39 92.7891 22.39H78.9641L78.3341 19.975H91.8091L91.2491 20.465V19.695C91.1558 18.7383 90.8291 17.9217 90.2691 17.245C89.7325 16.545 89.0675 16.0083 88.2741 15.635C87.5041 15.2617 86.6875 15.075 85.8241 15.075C85.1241 15.075 84.4241 15.2033 83.7241 15.46C83.0475 15.6933 82.4291 16.09 81.8691 16.65C81.3325 17.1867 80.8891 17.8867 80.5391 18.75C80.2125 19.6133 80.0491 20.6517 80.0491 21.865C80.0491 23.2183 80.3175 24.4083 80.8541 25.435C81.4141 26.4617 82.1841 27.2783 83.1641 27.885C84.1441 28.4683 85.2875 28.76 86.5941 28.76C87.4108 28.76 88.1225 28.655 88.7291 28.445C89.3358 28.235 89.8608 27.9783 90.3041 27.675C90.7475 27.3483 91.1208 27.0217 91.4241 26.695C91.7275 26.485 92.0191 26.38 92.2991 26.38C92.6491 26.38 92.9291 26.4967 93.1391 26.73C93.3725 26.9633 93.4891 27.2433 93.4891 27.57C93.4891 27.9667 93.3025 28.3167 92.9291 28.62C92.2758 29.3433 91.3891 29.985 90.2691 30.545C89.1491 31.0817 87.9591 31.35 86.6991 31.35ZM106.763 31.35C104.896 31.35 103.263 30.9533 101.863 30.16C100.463 29.3667 99.366 28.2817 98.5726 26.905C97.8026 25.505 97.4176 23.895 97.4176 22.075C97.4176 20.045 97.8143 18.3183 98.6076 16.895C99.4243 15.4483 100.474 14.3517 101.758 13.605C103.064 12.835 104.441 12.45 105.888 12.45C106.961 12.45 107.999 12.6483 109.003 13.045C110.006 13.4417 110.893 14.025 111.663 14.795C112.433 15.5417 113.051 16.4517 113.518 17.525C113.984 18.575 114.229 19.7533 114.253 21.06C114.253 21.4333 114.113 21.7483 113.833 22.005C113.553 22.2617 113.226 22.39 112.853 22.39H99.0276L98.3976 19.975H111.873L111.313 20.465V19.695C111.219 18.7383 110.893 17.9217 110.333 17.245C109.796 16.545 109.131 16.0083 108.338 15.635C107.568 15.2617 106.751 15.075 105.888 15.075C105.188 15.075 104.488 15.2033 103.788 15.46C103.111 15.6933 102.493 16.09 101.933 16.65C101.396 17.1867 100.953 17.8867 100.603 18.75C100.276 19.6133 100.113 20.6517 100.113 21.865C100.113 23.2183 100.381 24.4083 100.918 25.435C101.478 26.4617 102.248 27.2783 103.228 27.885C104.208 28.4683 105.351 28.76 106.658 28.76C107.474 28.76 108.186 28.655 108.793 28.445C109.399 28.235 109.924 27.9783 110.368 27.675C110.811 27.3483 111.184 27.0217 111.488 26.695C111.791 26.485 112.083 26.38 112.363 26.38C112.713 26.38 112.993 26.4967 113.203 26.73C113.436 26.9633 113.553 27.2433 113.553 27.57C113.553 27.9667 113.366 28.3167 112.993 28.62C112.339 29.3433 111.453 29.985 110.333 30.545C109.213 31.0817 108.023 31.35 106.763 31.35ZM127.211 12.625C128.751 12.625 129.964 12.9633 130.851 13.64C131.761 14.2933 132.403 15.18 132.776 16.3C133.173 17.3967 133.371 18.6217 133.371 19.975V29.565C133.371 29.9617 133.231 30.3 132.951 30.58C132.694 30.86 132.368 31 131.971 31C131.574 31 131.236 30.86 130.956 30.58C130.699 30.3 130.571 29.9617 130.571 29.565V19.975C130.571 19.0883 130.443 18.295 130.186 17.595C129.929 16.8717 129.498 16.3 128.891 15.88C128.308 15.4367 127.503 15.215 126.476 15.215C125.519 15.215 124.644 15.4367 123.851 15.88C123.058 16.3 122.428 16.8717 121.961 17.595C121.494 18.295 121.261 19.0883 121.261 19.975V29.565C121.261 29.9617 121.121 30.3 120.841 30.58C120.584 30.86 120.258 31 119.861 31C119.464 31 119.126 30.86 118.846 30.58C118.589 30.3 118.461 29.9617 118.461 29.565V6.5C118.461 6.10333 118.589 5.77667 118.846 5.52C119.126 5.24 119.464 5.1 119.861 5.1C120.281 5.1 120.619 5.24 120.876 5.52C121.133 5.77667 121.261 6.10333 121.261 6.5V16.965L120.561 17.735C120.678 17.1283 120.934 16.5217 121.331 15.915C121.728 15.285 122.229 14.725 122.836 14.235C123.443 13.745 124.119 13.36 124.866 13.08C125.613 12.7767 126.394 12.625 127.211 12.625ZM153.469 12.73C153.865 12.73 154.192 12.87 154.449 13.15C154.729 13.4067 154.869 13.7333 154.869 14.13V29.565C154.869 29.9617 154.729 30.3 154.449 30.58C154.192 30.86 153.865 31 153.469 31C153.049 31 152.71 30.86 152.454 30.58C152.197 30.3 152.069 29.9617 152.069 29.565V26.24L152.734 26.17C152.734 26.6833 152.559 27.2433 152.209 27.85C151.859 28.4567 151.38 29.0283 150.774 29.565C150.167 30.0783 149.444 30.51 148.604 30.86C147.787 31.1867 146.9 31.35 145.944 31.35C144.357 31.35 142.934 30.9417 141.674 30.125C140.414 29.285 139.41 28.1533 138.664 26.73C137.94 25.3067 137.579 23.685 137.579 21.865C137.579 20.0217 137.94 18.4 138.664 17C139.41 15.5767 140.414 14.4683 141.674 13.675C142.934 12.8583 144.334 12.45 145.874 12.45C146.877 12.45 147.81 12.6133 148.674 12.94C149.537 13.2667 150.284 13.71 150.914 14.27C151.567 14.83 152.069 15.4483 152.419 16.125C152.792 16.8017 152.979 17.4783 152.979 18.155L152.069 17.945V14.13C152.069 13.7333 152.197 13.4067 152.454 13.15C152.71 12.87 153.049 12.73 153.469 12.73ZM146.259 28.76C147.425 28.76 148.452 28.4567 149.339 27.85C150.249 27.2433 150.949 26.4267 151.439 25.4C151.952 24.35 152.209 23.1717 152.209 21.865C152.209 20.5817 151.952 19.4267 151.439 18.4C150.949 17.35 150.249 16.5333 149.339 15.95C148.452 15.3433 147.425 15.04 146.259 15.04C145.115 15.04 144.089 15.3317 143.179 15.915C142.292 16.4983 141.592 17.3033 141.079 18.33C140.565 19.3567 140.309 20.535 140.309 21.865C140.309 23.1717 140.554 24.35 141.044 25.4C141.557 26.4267 142.257 27.2433 143.144 27.85C144.054 28.4567 145.092 28.76 146.259 28.76ZM169.053 12.45C170.639 12.45 171.888 12.7767 172.798 13.43C173.708 14.0833 174.349 14.9583 174.723 16.055C175.119 17.1517 175.318 18.3767 175.318 19.73V29.565C175.318 29.9617 175.178 30.3 174.898 30.58C174.641 30.86 174.314 31 173.918 31C173.521 31 173.183 30.86 172.903 30.58C172.646 30.3 172.518 29.9617 172.518 29.565V19.8C172.518 18.9133 172.378 18.12 172.098 17.42C171.841 16.6967 171.398 16.125 170.768 15.705C170.161 15.2617 169.321 15.04 168.248 15.04C167.268 15.04 166.369 15.2617 165.553 15.705C164.736 16.125 164.083 16.6967 163.593 17.42C163.103 18.12 162.858 18.9133 162.858 19.8V29.565C162.858 29.9617 162.718 30.3 162.438 30.58C162.181 30.86 161.854 31 161.458 31C161.061 31 160.723 30.86 160.443 30.58C160.186 30.3 160.058 29.9617 160.058 29.565V14.305C160.058 13.9083 160.186 13.5817 160.443 13.325C160.723 13.045 161.061 12.905 161.458 12.905C161.878 12.905 162.216 13.045 162.473 13.325C162.729 13.5817 162.858 13.9083 162.858 14.305V16.79L162.158 17.56C162.274 16.9533 162.543 16.3467 162.963 15.74C163.383 15.11 163.908 14.55 164.538 14.06C165.168 13.57 165.868 13.185 166.638 12.905C167.408 12.6017 168.213 12.45 169.053 12.45ZM195.407 5.1C195.804 5.1 196.131 5.24 196.387 5.52C196.667 5.77667 196.807 6.10333 196.807 6.5V29.565C196.807 29.9617 196.667 30.3 196.387 30.58C196.131 30.86 195.804 31 195.407 31C194.987 31 194.649 30.86 194.392 30.58C194.136 30.3 194.007 29.9617 194.007 29.565V26.24L194.672 25.995C194.672 26.555 194.497 27.15 194.147 27.78C193.797 28.3867 193.319 28.9583 192.712 29.495C192.106 30.0317 191.382 30.475 190.542 30.825C189.726 31.175 188.839 31.35 187.882 31.35C186.319 31.35 184.896 30.9417 183.612 30.125C182.352 29.3083 181.349 28.1883 180.602 26.765C179.879 25.3417 179.517 23.72 179.517 21.9C179.517 20.0567 179.879 18.4233 180.602 17C181.349 15.5767 182.352 14.4683 183.612 13.675C184.872 12.8583 186.272 12.45 187.812 12.45C188.792 12.45 189.714 12.6133 190.577 12.94C191.441 13.2667 192.187 13.71 192.817 14.27C193.471 14.83 193.984 15.4483 194.357 16.125C194.731 16.8017 194.917 17.4783 194.917 18.155L194.007 17.945V6.5C194.007 6.10333 194.136 5.77667 194.392 5.52C194.649 5.24 194.987 5.1 195.407 5.1ZM188.197 28.76C189.364 28.76 190.391 28.4683 191.277 27.885C192.187 27.2783 192.887 26.4617 193.377 25.435C193.891 24.385 194.147 23.2067 194.147 21.9C194.147 20.57 193.891 19.3917 193.377 18.365C192.887 17.3383 192.187 16.5333 191.277 15.95C190.391 15.3433 189.364 15.04 188.197 15.04C187.054 15.04 186.027 15.3433 185.117 15.95C184.231 16.5333 183.531 17.3383 183.017 18.365C182.504 19.3917 182.247 20.57 182.247 21.9C182.247 23.1833 182.504 24.35 183.017 25.4C183.531 26.4267 184.231 27.2433 185.117 27.85C186.027 28.4567 187.054 28.76 188.197 28.76Z" fill="#16133D"/>
<path d="M24.8265 18.6349C24.6572 18.6741 24.5372 18.8257 24.5372 19C24.5372 19.1743 24.6572 19.3259 24.8265 19.3651C28.0209 20.1096 30.252 22.9254 30.252 26.2129C30.252 30.0933 27.1036 33.25 23.2337 33.25C19.9308 33.25 17.0425 30.9004 16.3661 27.6635C16.3299 27.4899 16.1771 27.3654 16.0001 27.3654C15.8231 27.3654 15.6703 27.4899 15.6341 27.6635C14.9575 30.9004 12.0692 33.25 8.76631 33.25C4.8964 33.25 1.74802 30.0933 1.74802 26.2129C1.74802 22.9254 3.97909 20.1096 7.17349 19.3651C7.34278 19.3259 7.46276 19.1743 7.46276 19C7.46276 18.8257 7.34278 18.6741 7.17349 18.6349C3.97909 17.8904 1.74802 15.0746 1.74802 11.7871C1.74802 7.90674 4.8964 4.75 8.76631 4.75C12.0692 4.75 14.9575 7.09961 15.6341 10.3365C15.6703 10.5101 15.8231 10.6346 16.0001 10.6346C16.1771 10.6346 16.3299 10.5101 16.3661 10.3365C17.0425 7.09961 19.9308 4.75 23.2337 4.75C27.1036 4.75 30.252 7.90674 30.252 11.7871C30.252 15.0746 28.0209 17.8904 24.8265 18.6349Z" stroke="#3DB370" stroke-width="3"/>
</svg>
